<mxfile host="app.diagrams.net" agent="Mozilla/5.0 (X11; Linux x86_64; rv:133.0) Gecko/20100101 Firefox/133.0" version="24.9.2">
  <diagram id="C5RBs43oDa-KdzZeNtuy" name="Page-1">
    <mxGraphModel dx="1434" dy="778" grid="1" gridSize="10" guides="1" tooltips="1" connect="1" arrows="1" fold="1" page="1" pageScale="1" pageWidth="2000" pageHeight="1000" math="0" shadow="0">
      <root>
        <mxCell id="WIyWlLk6GJQsqaUBKTNV-0" />
        <mxCell id="WIyWlLk6GJQsqaUBKTNV-1" parent="WIyWlLk6GJQsqaUBKTNV-0" />
        <mxCell id="DJnPqNGU1OBcBrdGDTDk-7" style="edgeStyle=orthogonalEdgeStyle;rounded=0;orthogonalLoop=1;jettySize=auto;html=1;exitX=0.5;exitY=1;exitDx=0;exitDy=0;entryX=0.5;entryY=0;entryDx=0;entryDy=0;" edge="1" parent="WIyWlLk6GJQsqaUBKTNV-1" source="DJnPqNGU1OBcBrdGDTDk-1" target="DJnPqNGU1OBcBrdGDTDk-2">
          <mxGeometry relative="1" as="geometry" />
        </mxCell>
        <mxCell id="DJnPqNGU1OBcBrdGDTDk-1" value="&lt;div&gt;Start&lt;/div&gt;" style="ellipse;whiteSpace=wrap;html=1;" vertex="1" parent="WIyWlLk6GJQsqaUBKTNV-1">
          <mxGeometry x="40" width="120" height="80" as="geometry" />
        </mxCell>
        <mxCell id="DJnPqNGU1OBcBrdGDTDk-8" style="edgeStyle=orthogonalEdgeStyle;rounded=0;orthogonalLoop=1;jettySize=auto;html=1;exitX=0.5;exitY=1;exitDx=0;exitDy=0;entryX=0.5;entryY=0;entryDx=0;entryDy=0;" edge="1" parent="WIyWlLk6GJQsqaUBKTNV-1" source="DJnPqNGU1OBcBrdGDTDk-2" target="DJnPqNGU1OBcBrdGDTDk-3">
          <mxGeometry relative="1" as="geometry" />
        </mxCell>
        <mxCell id="DJnPqNGU1OBcBrdGDTDk-2" value="&lt;div&gt;m = 2.1&lt;/div&gt;&lt;div&gt;t = 1.02&lt;/div&gt;&lt;div&gt;c = -1.0&lt;br&gt;&lt;/div&gt;" style="rounded=0;whiteSpace=wrap;html=1;" vertex="1" parent="WIyWlLk6GJQsqaUBKTNV-1">
          <mxGeometry x="40" y="120" width="120" height="60" as="geometry" />
        </mxCell>
        <mxCell id="DJnPqNGU1OBcBrdGDTDk-9" style="edgeStyle=orthogonalEdgeStyle;rounded=0;orthogonalLoop=1;jettySize=auto;html=1;exitX=0.5;exitY=1;exitDx=0;exitDy=0;entryX=0.5;entryY=0;entryDx=0;entryDy=0;" edge="1" parent="WIyWlLk6GJQsqaUBKTNV-1" source="DJnPqNGU1OBcBrdGDTDk-3" target="DJnPqNGU1OBcBrdGDTDk-4">
          <mxGeometry relative="1" as="geometry" />
        </mxCell>
        <mxCell id="DJnPqNGU1OBcBrdGDTDk-3" value="P = cbrt(m*tan(t)+fabs(c*sin(t)))" style="rounded=0;whiteSpace=wrap;html=1;" vertex="1" parent="WIyWlLk6GJQsqaUBKTNV-1">
          <mxGeometry x="40" y="220" width="120" height="60" as="geometry" />
        </mxCell>
        <mxCell id="DJnPqNGU1OBcBrdGDTDk-10" style="edgeStyle=orthogonalEdgeStyle;rounded=0;orthogonalLoop=1;jettySize=auto;html=1;exitX=0.5;exitY=1;exitDx=0;exitDy=0;entryX=0.5;entryY=0;entryDx=0;entryDy=0;" edge="1" parent="WIyWlLk6GJQsqaUBKTNV-1" source="DJnPqNGU1OBcBrdGDTDk-4" target="DJnPqNGU1OBcBrdGDTDk-5">
          <mxGeometry relative="1" as="geometry" />
        </mxCell>
        <mxCell id="DJnPqNGU1OBcBrdGDTDk-4" value="K =cos(t)*cos(t)-m/cbrt(fabs(m*m-t*t))" style="rounded=0;whiteSpace=wrap;html=1;" vertex="1" parent="WIyWlLk6GJQsqaUBKTNV-1">
          <mxGeometry x="40" y="320" width="120" height="60" as="geometry" />
        </mxCell>
        <mxCell id="DJnPqNGU1OBcBrdGDTDk-11" style="edgeStyle=orthogonalEdgeStyle;rounded=0;orthogonalLoop=1;jettySize=auto;html=1;exitX=0.5;exitY=1;exitDx=0;exitDy=0;entryX=0.5;entryY=0;entryDx=0;entryDy=0;" edge="1" parent="WIyWlLk6GJQsqaUBKTNV-1" source="DJnPqNGU1OBcBrdGDTDk-5" target="DJnPqNGU1OBcBrdGDTDk-6">
          <mxGeometry relative="1" as="geometry" />
        </mxCell>
        <mxCell id="DJnPqNGU1OBcBrdGDTDk-5" value="print m,t,c,P,K" style="shape=parallelogram;perimeter=parallelogramPerimeter;whiteSpace=wrap;html=1;fixedSize=1;" vertex="1" parent="WIyWlLk6GJQsqaUBKTNV-1">
          <mxGeometry x="40" y="420" width="120" height="60" as="geometry" />
        </mxCell>
        <mxCell id="DJnPqNGU1OBcBrdGDTDk-6" value="End" style="ellipse;whiteSpace=wrap;html=1;" vertex="1" parent="WIyWlLk6GJQsqaUBKTNV-1">
          <mxGeometry x="40" y="520" width="120" height="80" as="geometry" />
        </mxCell>
      </root>
    </mxGraphModel>
  </diagram>
</mxfile>
